<svg width="7.8643mm" height="18.357mm" version="1.1" viewBox="0 0 7.8643 18.357" xmlns="http://www.w3.org/2000/svg">
 <g transform="translate(-104.39 -120.1)">
  <g transform="matrix(.26458 0 0 .26458 67.644 90.982)">
   <path d="m158.2 137.35v20.796c0 0.33814 0.16907 0.50721 0.33814 0.84535 1.3526 1.1835 2.1979 2.536 2.8742 4.2268 0.33814 0.84535 0.50721 1.5216 0.67628 2.367 0.16907 1.1835 0.16907 2.367 0.16907 3.5505-0.16907 1.0144-0.33814 2.0288-0.84535 3.0433-0.67628 1.6907-1.8598 3.2123-3.2123 4.3958-0.84535 0.67628-1.8598 1.3526-2.8742 1.8598-0.67628 0.33814-1.3526 0.50721-2.1979 0.67628-0.84535 0.33814-1.8598 0.33814-2.8742 0.33814-0.67628 0-1.5216-0.16907-2.1979-0.33814-0.50721-0.16907-1.0144-0.16907-1.5216-0.50721-1.0144-0.33814-1.8598-0.84535-2.7051-1.3526-1.0144-0.67628-1.8598-1.5216-2.7051-2.536-0.67628-0.84535-1.1835-1.6907-1.5216-2.7051-0.67628-1.6907-0.84535-3.3814-0.67628-5.2412 0.16907-1.0144 0.33814-1.8598 0.67628-2.8742s0.84535-2.0288 1.5216-2.8742c0.50721-0.67628 1.0144-1.3526 1.6907-1.8598 0.16907-0.16907 0.16907-0.33814 0.16907-0.50721v-41.084c0-1.8598 0.50721-3.5505 1.8598-4.903 0.67628-0.84535 1.6907-1.5216 2.7051-2.0288 1.3526-0.50721 2.7051-0.67628 4.0577-0.50721 1.0144 0.16907 1.8598 0.50721 2.7051 1.0144 1.5216 0.84535 2.536 2.1979 3.0433 3.7195 0.16907 0.67628 0.33814 1.1835 0.33814 1.8598v0.84535c0.50721 6.4247 0.50721 13.187 0.50721 19.781zm-3.2123 1.1835v-21.134c0-1.0144-0.33814-1.8598-0.84535-2.7051-0.67628-1.0144-1.6907-1.5216-2.8742-1.6907-0.50721-0.16907-1.1835 0-1.6907 0.16907-0.67628 0.16907-1.1835 0.50721-1.6907 1.1835-0.50721 0.50721-0.84535 1.1835-1.0144 1.8598-0.16907 0.50721-0.16907 0.84535-0.16907 1.3526v42.098c0 0.50721-0.16907 0.84535-0.67628 1.1835-0.84535 0.50721-1.5216 1.1835-2.0288 2.0288-0.67628 1.0144-1.1835 2.0288-1.3526 3.2123-0.16907 0.67628-0.16907 1.3526-0.16907 2.0288 0.16907 0.67628 0.16907 1.3526 0.33814 2.0288 0.33814 0.84535 0.67628 1.6907 1.3526 2.367 0.67628 0.84535 1.5216 1.6907 2.536 2.1979 0.84535 0.50721 1.8598 0.84535 2.8742 1.0144 1.1835 0.16907 2.367 0 3.3814-0.33814s1.8598-0.84535 2.7051-1.5216c1.1835-1.0144 2.1979-2.1979 2.7051-3.7195 0.33814-0.84535 0.50721-1.8598 0.50721-2.7051 0-0.67628-0.16907-1.3526-0.33814-2.0288-0.16907-0.84535-0.67628-1.6907-1.0144-2.536-0.67628-1.0144-1.5216-1.8598-2.536-2.536-0.16907-0.16907-0.33814-0.33814-0.33814-0.50721v-0.50721c0.33814-6.7628 0.33814-13.695 0.33814-20.796z" style="opacity:.95402;stroke-width:1.6907"/>
   <path d="m168.51 135.32c0.16907 0.50721 0 1.0144 0 1.6907h-7.7772c-0.50721 0-0.50721 0-0.50721-0.50721v-0.84535c0-0.33814 0-0.33814 0.33814-0.33814h7.6082z" style="opacity:.95402;stroke-width:1.6907"/>
   <path d="m160.23 145.97v-1.3526c0-0.16907 0.16907-0.33814 0.33814-0.33814h7.6082c0.33814 0 0.33814 0 0.33814 0.33814v1.1835c-0.33814 0.33814-7.7772 0.33814-8.2844 0.16907z" style="opacity:.95402;stroke-width:1.6907"/>
   <path d="m164.46 139.88v1.6907h-3.7195c-0.33814 0-0.50721 0-0.50721-0.50721v-0.84535c0-0.33814 0-0.33814 0.33814-0.33814h1.6907z" style="opacity:.95402;stroke-width:1.6907"/>
   <path d="m164.46 132.45h-3.7195c-0.16907 0-0.33814-0.16907-0.33814-0.33814v-1.1835c0.33814-0.16907 3.5505-0.16907 4.0577 0z" style="opacity:.95402;stroke-width:1.6907"/>
   <path d="m152.45 147.49v14.202c0 0.16907 0.16907 0.33814 0.33814 0.50721 1.0144 0.33814 1.8598 1.0144 2.536 1.6907 0.50721 0.67628 0.84535 1.3526 1.0144 2.0288 0.16907 0.84535 0.33814 1.8598 0.16907 2.7051-0.33814 1.5216-1.1835 2.8742-2.536 3.7195-0.67628 0.33814-1.3526 0.67628-2.0288 0.84535-0.50721 0.16907-1.0144 0.16907-1.5216 0.16907-1.1835-0.16907-2.1979-0.50721-3.2123-1.1835-0.84535-0.67628-1.3526-1.3526-1.6907-2.1979-0.16907-0.50721-0.50721-1.1835-0.50721-1.6907 0-0.84535 0-1.5216 0.16907-2.1979 0.33814-0.84535 0.67628-1.5216 1.1835-2.1979 0.67628-0.67628 1.5216-1.1835 2.367-1.5216 0.16907 0 0.33814-0.16907 0.33814-0.33814v-28.235c0-0.50721 0-0.84535 0.33814-1.1835 0.50721-0.67628 1.1835-0.67628 1.8598-0.50721 0.50721 0.16907 1.0144 0.67628 1.1835 1.3526v0.84535z" style="opacity:.95402;stroke-width:1.6907"/>
  </g>
 </g>
</svg>
